<svg xmlns="http://www.w3.org/2000/svg" width="36" height="36" viewBox="0 0 36 36"><defs><style>.a{opacity:0.8;}.b{fill:none;}.c{fill:#fff;}</style></defs><g class="a" transform="translate(-0.497 -0.411)"><rect class="b" width="36" height="36" transform="translate(0.497 0.412)"/><rect class="b" width="36" height="36" transform="translate(0.497 0.412)"/><g transform="translate(3.069 3.145)"><path class="c" d="M34.686,5.634V33.1a.23.23,0,0,1-.077.153,1.458,1.458,0,0,1-1.381,1.381H25.173V22.818h3.759c.23,0,.23,0,.307-.23l.23-1.918c.077-.767.153-1.534.307-2.3s0-.23-.153-.23H25.173V15.147c0-.23.077-.537.077-.767a1.381,1.381,0,0,1,1.227-1.227l1-.153h2.3c.153,0,.153,0,.153-.153V8.933c0-.077,0-.153-.153-.153H26.247a5.523,5.523,0,0,0-2.532.537,4.6,4.6,0,0,0-2.685,2.378,5.6,5.6,0,0,0-.614,2.762c-.077,1.151,0,2.378,0,3.606H16.5c-.153,0-.153.077-.153.153v4.373c0,.153,0,.153.153.153h3.912V34.556a.23.23,0,0,0-.077.153H5.458a1.458,1.458,0,0,1-1.381-1.381C4,33.328,4,33.252,4,33.175V5.634c0-.077,0-.153.077-.153A1.458,1.458,0,0,1,5.458,4.1H33.228a1.458,1.458,0,0,1,1.381,1.381Z" transform="translate(-4 -4.1)"/></g></g></svg>