<svg xmlns="http://www.w3.org/2000/svg" width="36" height="36" viewBox="0 0 36 36"><defs><style>.a{opacity:0.8;}.b{fill:none;}.c{fill:#fff;}</style></defs><g class="a" transform="translate(-0.412 -0.411)"><rect class="b" width="36" height="36" transform="translate(0.412 0.412)"/><rect class="b" width="36" height="36" transform="translate(0.412 0.412)"/><g transform="translate(3.069 3.069)"><path class="c" d="M19.343,6.762h6.214A8.285,8.285,0,0,1,28.4,7.3a5.14,5.14,0,0,1,2.915,2.915,8.285,8.285,0,0,1,.537,2.838c.077,1.611.077,2.148.077,6.214s0,4.6-.077,6.214a8.285,8.285,0,0,1-.537,2.838A5.14,5.14,0,0,1,28.4,31.234a8.285,8.285,0,0,1-2.838.537H13.129a8.285,8.285,0,0,1-2.838-.537,5.14,5.14,0,0,1-2.915-2.915,8.285,8.285,0,0,1-.537-2.838c-.077-1.611-.077-2.148-.077-6.214s0-4.6.077-6.214a8.285,8.285,0,0,1,.537-2.838A5.14,5.14,0,0,1,10.291,7.3a8.285,8.285,0,0,1,2.838-.537h6.214m0-2.762H13.052a13.732,13.732,0,0,0-3.759.69A7.672,7.672,0,0,0,6.608,6.608,6.521,6.521,0,0,0,4.844,9.293a11.124,11.124,0,0,0-.767,3.759C4,14.663,4,15.2,4,19.343s0,4.68.077,6.291a11.124,11.124,0,0,0,.767,3.759,6.521,6.521,0,0,0,1.764,2.685,6.521,6.521,0,0,0,2.685,1.764,11.124,11.124,0,0,0,3.759.767H25.634a11.124,11.124,0,0,0,3.759-.767,6.521,6.521,0,0,0,2.685-1.764,7.671,7.671,0,0,0,1.841-2.685,13.732,13.732,0,0,0,.69-3.759c.077-1.611.077-2.148.077-6.291s0-4.68-.077-6.291a13.732,13.732,0,0,0-.69-3.759,7.671,7.671,0,0,0-1.841-2.685,7.671,7.671,0,0,0-2.685-1.841,13.732,13.732,0,0,0-3.759-.69H19.343" transform="translate(-4 -4)"/><path class="c" d="M21.6,13.7a7.9,7.9,0,1,0,7.9,7.9,7.9,7.9,0,0,0-7.9-7.9m0,13.042a5.14,5.14,0,1,1,5.14-5.14,5.14,5.14,0,0,1-5.14,5.14" transform="translate(-6.259 -6.259)"/><path class="c" d="M35.982,12.741A1.841,1.841,0,1,1,34.141,10.9a1.841,1.841,0,0,1,1.841,1.841" transform="translate(-10.59 -5.607)"/></g></g></svg>