<svg xmlns="http://www.w3.org/2000/svg" width="36" height="36" viewBox="0 0 36 36"><defs><style>.a{fill:none;}.b{fill:#fff;}</style></defs><rect class="a" width="36" height="36"/><rect class="a" width="36" height="36"/><g transform="translate(2 6.063)"><path class="b" d="M34,8.815a14.267,14.267,0,0,1-3.782,1,6.39,6.39,0,0,0,2.909-3.326A17.855,17.855,0,0,1,28.982,7.95a7.06,7.06,0,0,0-7.2-1.476,6.1,6.1,0,0,0-4.22,5.533,4.655,4.655,0,0,0,.218,1.4A19.41,19.41,0,0,1,4.255,7.152a5.3,5.3,0,0,0-.945,2.993,5.815,5.815,0,0,0,2.982,4.989A6.319,6.319,0,0,1,3.309,14.4h0a6.071,6.071,0,0,0,5.236,5.92,6.788,6.788,0,0,1-1.745.266l-1.236-.133a6.65,6.65,0,0,0,6.182,4.19A14.055,14.055,0,0,1,3.6,27.173H2A19.5,19.5,0,0,0,12.036,29.9c12.073,0,18.691-9.179,18.691-17.094v-.865A12.729,12.729,0,0,0,34,8.815Z" transform="translate(-2 -6.063)"/></g></svg>