<svg xmlns="http://www.w3.org/2000/svg" width="36" height="36" viewBox="0 0 36 36"><defs><style>.a{opacity:0.8;}.b{fill:none;}.c{fill:#fff;}</style></defs><g class="a" transform="translate(-0.327 -0.411)"><rect class="b" width="36" height="36" transform="translate(0.327 0.412)"/><rect class="b" width="36" height="36" transform="translate(0.327 0.412)"/><g transform="translate(1.534 6.137)"><path class="c" d="M35.064,11.682A4.219,4.219,0,0,0,32.072,8.69C29.464,8,18.877,8,18.877,8S8.291,8,5.682,8.69A4.219,4.219,0,0,0,2.69,11.682,44.775,44.775,0,0,0,2,19.814a44.775,44.775,0,0,0,.69,8.132,4.219,4.219,0,0,0,2.992,2.992c2.608.69,13.195.69,13.195.69s10.587,0,13.195-.69a4.219,4.219,0,0,0,2.992-2.992,44.775,44.775,0,0,0,.69-8.132A44.775,44.775,0,0,0,35.064,11.682ZM15.5,24.877V14.751l8.746,5.063Z" transform="translate(-2 -8)"/></g></g></svg>