<svg xmlns="http://www.w3.org/2000/svg" width="35" height="35" viewBox="0 0 35 35"><defs><style>.a{fill:#232323;stroke:#171717;stroke-width:2px;}.b{fill:#aeaeb2;}.c{stroke:none;}.d{fill:none;}</style></defs><g transform="translate(-1261 -312)"><g class="a" transform="translate(1261 312)"><circle class="c" cx="17.5" cy="17.5" r="17.5"/><circle class="d" cx="17.5" cy="17.5" r="16.5"/></g><g transform="translate(1262 307)"><g transform="translate(9 16)"><path class="b" d="M14.553,968.362l-.957,1.915H10.34A1.337,1.337,0,0,0,9,971.617v8.425a1.337,1.337,0,0,0,1.34,1.34H23.362a1.337,1.337,0,0,0,1.34-1.34v-8.425a1.337,1.337,0,0,0-1.34-1.34H20.106l-.957-1.915Zm2.3,3.255a4.213,4.213,0,1,1-4.213,4.213A4.224,4.224,0,0,1,16.851,971.617Zm0,1.532a2.681,2.681,0,1,0,2.681,2.681A2.669,2.669,0,0,0,16.851,973.149Z" transform="translate(-9 -968.362)"/></g></g></g></svg>