<svg xmlns="http://www.w3.org/2000/svg" width="15.045" height="15.042" viewBox="0 0 15.045 15.042"><defs><style>.a{fill:#aeaeae;}</style></defs><g transform="translate(-147.6 -70.14)"><g transform="translate(147.6 70.14)"><path class="a" d="M638.447,71.525a.975.975,0,0,0-.283-.424l-.535-.535c-.066-.066-.132-.134-.2-.2a.8.8,0,0,0-1.1-.015c-.045.04-.085.085-.128.128l-.861.861-.938.938c.013.013.023.026.036.036l.19.19.226.226.55.55.469.469.226.226.226.226.805-.805.94-.94c.055-.055.113-.109.166-.166A.792.792,0,0,0,638.447,71.525Z" transform="translate(-623.43 -70.14)"/><path class="a" d="M159.9,200.829l-.151.151-1.95,1.95-2.11,2.11-2.041,2.041q-.869.873-1.741,1.741l-1.215,1.215-.456.456a.313.313,0,0,1-.121.075s0,0,0,0a.319.319,0,0,1-.1.017l-2.089.619a.325.325,0,0,1-.32-.32l.619-2.032a.4.4,0,0,1,.1-.292c.173-.19.367-.364.548-.548l1.281-1.281q.892-.892,1.786-1.784l2.058-2.058,2.1-2.1q.943-.943,1.884-1.882l.226.226.226.226.469.469.55.55.226.226.19.19C159.875,200.8,159.888,200.816,159.9,200.829Z" transform="translate(-147.6 -196.163)"/></g></g></svg>