<svg xmlns="http://www.w3.org/2000/svg" width="211.041" height="60.547" viewBox="0 0 211.041 60.547"><defs><style>.a{fill:#010101;}.b{fill:#fff;}</style></defs><g transform="translate(0)"><path class="a" d="M368.834,689.615a6.07,6.07,0,0,1-6.071,6.069H163.878a6.078,6.078,0,0,1-6.085-6.069v-48.4a6.086,6.086,0,0,1,6.085-6.077H362.755a6.076,6.076,0,0,1,6.077,6.076v0l0,48.4Z" transform="translate(-157.793 -635.137)"/><path class="b" d="M274.677,698.252a8.984,8.984,0,0,1,4.28-7.538,9.206,9.206,0,0,0-7.249-3.918c-3.049-.321-6.007,1.824-7.56,1.824-1.584,0-3.976-1.793-6.554-1.74a9.65,9.65,0,0,0-8.123,4.953c-3.513,6.08-.893,15.015,2.473,19.929,1.683,2.409,3.651,5.094,6.226,5,2.519-.1,3.46-1.6,6.5-1.6,3.012,0,3.9,1.6,6.522,1.544,2.7-.042,4.406-2.418,6.031-4.846a19.863,19.863,0,0,0,2.758-5.615,8.692,8.692,0,0,1-5.3-7.988Zm-4.961-14.689a8.842,8.842,0,0,0,2.025-6.337,9.011,9.011,0,0,0-5.826,3.013,8.414,8.414,0,0,0-2.077,6.1,7.443,7.443,0,0,0,5.879-2.779Z" transform="translate(-226.807 -667.408)"/><g transform="translate(66.94 26.286)"><path class="b" d="M462.2,768.763h-3.521l-1.928-6.058h-6.7l-1.837,6.058h-3.428l6.643-20.625h4.1l6.672,20.625Zm-6.031-8.6-1.744-5.386q-.277-.825-1.04-3.885h-.062q-.307,1.316-.98,3.885l-1.715,5.386Zm23.08.981a8.419,8.419,0,0,1-2.062,6A6.046,6.046,0,0,1,472.6,769.1a4.591,4.591,0,0,1-4.248-2.109v7.8h-3.3V758.78q0-2.383-.123-4.888h2.907l.185,2.357h.062a5.881,5.881,0,0,1,9.412-.584,8.223,8.223,0,0,1,1.758,5.48Zm-3.367.121a6.132,6.132,0,0,0-.98-3.582,3.386,3.386,0,0,0-2.877-1.468,3.437,3.437,0,0,0-2.218.81,3.759,3.759,0,0,0-1.3,2.128,4.305,4.305,0,0,0-.153,1.006v2.481a3.977,3.977,0,0,0,1,2.74,3.3,3.3,0,0,0,2.586,1.117,3.388,3.388,0,0,0,2.907-1.438A6.33,6.33,0,0,0,475.885,761.266Zm20.477-.121a8.42,8.42,0,0,1-2.062,6,6.05,6.05,0,0,1-4.587,1.959,4.591,4.591,0,0,1-4.248-2.109v7.8h-3.305V758.78q0-2.383-.122-4.888h2.907l.185,2.357h.062a5.882,5.882,0,0,1,9.413-.584,8.23,8.23,0,0,1,1.758,5.48Zm-3.369.121a6.13,6.13,0,0,0-.981-3.582,3.381,3.381,0,0,0-2.874-1.468,3.452,3.452,0,0,0-2.222.81,3.756,3.756,0,0,0-1.3,2.128,4.412,4.412,0,0,0-.155,1.006v2.481a3.991,3.991,0,0,0,.994,2.74,3.311,3.311,0,0,0,2.589,1.117,3.384,3.384,0,0,0,2.907-1.438A6.329,6.329,0,0,0,492.994,761.266Zm22.5,1.712a5.508,5.508,0,0,1-1.834,4.285,8.13,8.13,0,0,1-5.619,1.806,9.812,9.812,0,0,1-5.342-1.285l.764-2.754a9.2,9.2,0,0,0,4.775,1.286,4.505,4.505,0,0,0,2.906-.842,2.748,2.748,0,0,0,1.043-2.247,2.879,2.879,0,0,0-.859-2.112,7.961,7.961,0,0,0-2.846-1.59q-5.418-2.02-5.42-5.908a5.215,5.215,0,0,1,1.913-4.161,7.565,7.565,0,0,1,5.066-1.623,10.014,10.014,0,0,1,4.683.979l-.829,2.694a8.19,8.19,0,0,0-3.964-.949,4.031,4.031,0,0,0-2.735.857,2.452,2.452,0,0,0-.829,1.869,2.527,2.527,0,0,0,.95,2.019,10.708,10.708,0,0,0,3,1.59,10.168,10.168,0,0,1,3.918,2.508,5.227,5.227,0,0,1,1.26,3.577Zm10.956-6.607H522.8v7.221q0,2.755,1.928,2.753a5.812,5.812,0,0,0,1.468-.153l.091,2.509a7.49,7.49,0,0,1-2.57.366,3.962,3.962,0,0,1-3.062-1.195,5.859,5.859,0,0,1-1.1-4.01v-7.5h-2.17v-2.48h2.17v-2.723l3.246-.98v3.7h3.643v2.486Zm16.4,4.834a8.157,8.157,0,0,1-1.959,5.631,6.985,6.985,0,0,1-5.448,2.264,6.659,6.659,0,0,1-5.22-2.17,7.909,7.909,0,0,1-1.944-5.477,8.091,8.091,0,0,1,2-5.66,6.95,6.95,0,0,1,5.4-2.2,6.8,6.8,0,0,1,5.263,2.173,7.806,7.806,0,0,1,1.9,5.443Zm-3.426.076a6.658,6.658,0,0,0-.885-3.509,3.272,3.272,0,0,0-2.97-1.772,3.319,3.319,0,0,0-3.031,1.772,6.767,6.767,0,0,0-.887,3.571,6.638,6.638,0,0,0,.887,3.51,3.39,3.39,0,0,0,5.973-.03,6.684,6.684,0,0,0,.913-3.543ZM553.6,756.8a5.755,5.755,0,0,0-1.042-.091,3.12,3.12,0,0,0-2.695,1.317,4.962,4.962,0,0,0-.825,2.937v7.8h-3.305V758.575q0-2.342-.1-4.682h2.879l.121,2.846h.091a5.1,5.1,0,0,1,1.653-2.357,4,4,0,0,1,2.389-.8,5.306,5.306,0,0,1,.826.06l0,3.152Zm14.782,3.827a7.739,7.739,0,0,1-.121,1.5h-9.915a4.313,4.313,0,0,0,1.439,3.369,4.92,4.92,0,0,0,3.243,1.038,10.969,10.969,0,0,0,4.012-.7l.518,2.292a12.4,12.4,0,0,1-4.987.919,7.231,7.231,0,0,1-5.435-2.033,7.517,7.517,0,0,1-1.974-5.462,8.518,8.518,0,0,1,1.838-5.6,6.336,6.336,0,0,1,5.2-2.385,5.544,5.544,0,0,1,4.869,2.385,8.025,8.025,0,0,1,1.312,4.678Zm-3.152-.857a4.471,4.471,0,0,0-.642-2.54,2.886,2.886,0,0,0-2.632-1.379,3.134,3.134,0,0,0-2.631,1.347,4.937,4.937,0,0,0-.978,2.57l6.883,0Z" transform="translate(-444.786 -747.833)"/></g><g transform="translate(68.875 10.337)"><path class="b" d="M455.458,690.21a21.079,21.079,0,0,1-2.377-.121v-9.972a18.013,18.013,0,0,1,2.8-.211c3.791,0,5.536,1.865,5.536,4.9C461.415,688.316,459.353,690.21,455.458,690.21Zm.555-9.025a6.634,6.634,0,0,0-1.309.105v7.58a8.636,8.636,0,0,0,1.1.045c2.483,0,3.9-1.414,3.9-4.06C459.7,682.495,458.42,681.185,456.012,681.185Zm10.842,9.1a3.479,3.479,0,0,1-3.52-3.76,3.56,3.56,0,0,1,3.641-3.865,3.452,3.452,0,0,1,3.521,3.746,3.581,3.581,0,0,1-3.642,3.879Zm.062-6.438c-1.173,0-1.925,1.1-1.925,2.632,0,1.5.767,2.6,1.91,2.6s1.91-1.173,1.91-2.633c0-1.488-.752-2.6-1.894-2.6Zm15.761-1.037-2.286,7.309H478.9l-.947-3.174a24.083,24.083,0,0,1-.588-2.36h-.031a15.824,15.824,0,0,1-.586,2.36l-1.008,3.174h-1.505l-2.152-7.309h1.67l.828,3.475q.293,1.242.5,2.346h.031c.119-.615.315-1.384.6-2.331l1.039-3.489h1.324l.994,3.414c.24.828.436,1.64.588,2.407h.043a21.015,21.015,0,0,1,.5-2.407l.888-3.414,1.6,0Zm8.418,7.309h-1.625v-4.2c0-1.293-.5-1.94-1.474-1.94a1.687,1.687,0,0,0-1.625,1.79v4.347h-1.625V684.9c0-.646-.015-1.339-.06-2.091h1.429l.076,1.128h.045a2.627,2.627,0,0,1,2.318-1.277c1.535,0,2.542,1.173,2.542,3.083l0,4.377Zm4.48,0H493.95V679.457h1.626Zm5.923.166a3.48,3.48,0,0,1-3.52-3.76,3.56,3.56,0,0,1,3.64-3.865,3.451,3.451,0,0,1,3.521,3.746,3.58,3.58,0,0,1-3.64,3.879Zm.061-6.438c-1.174,0-1.925,1.1-1.925,2.632,0,1.5.769,2.6,1.908,2.6s1.91-1.173,1.91-2.633c0-1.488-.749-2.6-1.893-2.6Zm9.985,6.272-.118-.842h-.044a2.5,2.5,0,0,1-2.138,1.007,2.125,2.125,0,0,1-2.24-2.151c0-1.8,1.564-2.737,4.272-2.737v-.135c0-.962-.51-1.445-1.517-1.445a3.423,3.423,0,0,0-1.91.543l-.33-1.068a4.672,4.672,0,0,1,2.51-.632c1.91,0,2.874,1.007,2.874,3.024v2.692a11.048,11.048,0,0,0,.105,1.745l-1.465,0Zm-.223-3.641c-1.8,0-2.71.437-2.71,1.474a1.036,1.036,0,0,0,1.115,1.142,1.556,1.556,0,0,0,1.6-1.488Zm9.472,3.641-.076-1.173h-.045a2.45,2.45,0,0,1-2.347,1.339c-1.763,0-3.068-1.55-3.068-3.73,0-2.286,1.353-3.9,3.2-3.9a2.2,2.2,0,0,1,2.062.993h.033v-4.2h1.626v8.693c0,.707.017,1.368.06,1.97Zm-.24-4.3a1.768,1.768,0,0,0-1.711-1.9c-1.2,0-1.941,1.068-1.941,2.571,0,1.474.764,2.483,1.908,2.483a1.824,1.824,0,0,0,1.744-1.94v-1.218Zm11.937,4.467a3.479,3.479,0,0,1-3.519-3.76,3.56,3.56,0,0,1,3.64-3.865,3.451,3.451,0,0,1,3.52,3.746,3.579,3.579,0,0,1-3.641,3.879Zm.06-6.438c-1.172,0-1.924,1.1-1.924,2.632,0,1.5.767,2.6,1.908,2.6s1.91-1.173,1.91-2.633c0-1.488-.749-2.6-1.894-2.6Zm12.318,6.272h-1.626v-4.2c0-1.293-.5-1.94-1.474-1.94a1.686,1.686,0,0,0-1.623,1.79v4.347h-1.626V684.9c0-.646-.016-1.339-.06-2.091h1.429l.076,1.128h.045a2.625,2.625,0,0,1,2.316-1.279c1.535,0,2.544,1.173,2.544,3.083Zm10.931-6.091h-1.787v3.549c0,.9.313,1.354.946,1.354a3.215,3.215,0,0,0,.721-.076l.045,1.234a3.6,3.6,0,0,1-1.26.181c-1.281,0-2.046-.707-2.046-2.557v-3.686H551.35v-1.218h1.067v-1.339l1.6-.482v1.82H555.8v1.22Zm8.6,6.091h-1.623v-4.166c0-1.308-.494-1.97-1.474-1.97a1.593,1.593,0,0,0-1.626,1.73v4.406h-1.623V679.457h1.623v4.391h.032a2.465,2.465,0,0,1,2.2-1.189c1.547,0,2.493,1.2,2.493,3.114v4.347Zm8.812-3.264h-4.876a2.1,2.1,0,0,0,2.3,2.165,5.488,5.488,0,0,0,1.97-.346l.253,1.128a6.1,6.1,0,0,1-2.453.451,3.394,3.394,0,0,1-3.64-3.684c0-2.241,1.386-3.926,3.457-3.926,1.868,0,3.04,1.384,3.04,3.475a3.13,3.13,0,0,1-.056.736Zm-1.49-1.158c0-1.128-.569-1.925-1.608-1.925a1.927,1.927,0,0,0-1.777,1.925Z" transform="translate(-453.081 -679.457)"/></g></g></svg>