<svg xmlns="http://www.w3.org/2000/svg" xmlns:xlink="http://www.w3.org/1999/xlink" width="211.041" height="60.547" viewBox="0 0 211.041 60.547"><defs><style>.a{fill:#010101;}.b{fill:#fff;}.c{fill:url(#a);}.d{fill:url(#b);}.e{fill:url(#c);}.f{fill:url(#d);}</style><linearGradient id="a" x1="0.5" y1="-0.003" x2="0.5" y2="0.993" gradientUnits="objectBoundingBox"><stop offset="0" stop-color="#267caf"/><stop offset="0.286" stop-color="#4a92b4"/><stop offset="0.767" stop-color="#79bcba"/><stop offset="1" stop-color="#88cebc"/></linearGradient><linearGradient id="b" x1="0.638" y1="0.141" x2="0.339" y2="0.948" gradientUnits="objectBoundingBox"><stop offset="0" stop-color="#f48879"/><stop offset="0.119" stop-color="#f5907a"/><stop offset="0.713" stop-color="#fbb777"/><stop offset="1" stop-color="#fdc874"/></linearGradient><linearGradient id="c" x1="0.866" y1="0.172" x2="0.048" y2="1.029" gradientUnits="objectBoundingBox"><stop offset="0" stop-color="#eb413d"/><stop offset="0.167" stop-color="#d94452"/><stop offset="0.575" stop-color="#af487a"/><stop offset="0.862" stop-color="#954b92"/><stop offset="1" stop-color="#894a9c"/></linearGradient><linearGradient id="d" x1="0.106" y1="0.073" x2="0.888" y2="0.85" gradientUnits="objectBoundingBox"><stop offset="0" stop-color="#54c0ac"/><stop offset="1" stop-color="#dde79a"/></linearGradient></defs><g transform="translate(0)"><path class="a" d="M368.834,359.081a6.07,6.07,0,0,1-6.071,6.069H163.878a6.078,6.078,0,0,1-6.085-6.069v-48.4a6.086,6.086,0,0,1,6.085-6.077H362.755a6.076,6.076,0,0,1,6.077,6.076h0l0,48.4Z" transform="translate(-157.793 -304.603)"/><g transform="translate(20.987 10.939)"><path class="b" d="M445.189,363.882a4.22,4.22,0,0,1-1.084,3.1,4.819,4.819,0,1,1-3.408-8.21,4.126,4.126,0,0,1,1.859.465,3.374,3.374,0,0,1,1.394,1.084l-.775.775a2.888,2.888,0,0,0-2.478-1.084,3.082,3.082,0,0,0-2.479,1.084,3.739,3.739,0,0,0,0,5.266,3.988,3.988,0,0,0,2.479,1.084,3.4,3.4,0,0,0,2.633-1.084,2.564,2.564,0,0,0,.775-1.859H440.7v-1.239h4.492v.62Zm7.125-3.873h-4.182v2.943H452v1.084h-3.873v2.943h4.182v1.239h-5.421v-9.294h5.421Zm5.112,8.21h-1.239v-8.21h-2.633v-1.084h6.506v1.084h-2.633Zm7.125,0v-9.294h1.239v9.294Zm6.506,0h-1.239v-8.21h-2.633v-1.084h6.351v1.084H470.9v8.21Zm14.715-1.239a4.862,4.862,0,1,1,1.394-3.408A4.555,4.555,0,0,1,485.772,366.98Zm-5.886-.775a3.656,3.656,0,0,0,2.478,1.084,3.082,3.082,0,0,0,2.478-1.084,3.736,3.736,0,0,0,1.084-2.633,3.191,3.191,0,0,0-1.084-2.633,3.655,3.655,0,0,0-2.478-1.084,3.082,3.082,0,0,0-2.478,1.084,3.737,3.737,0,0,0-1.084,2.633A3.191,3.191,0,0,0,479.886,366.205Zm8.984,2.014v-9.294h1.394l4.492,7.28v-7.28H496v9.294h-1.239l-4.8-7.59v7.59Z" transform="translate(-392.016 -357.075)"/><path class="b" d="M475.725,425.15a6.517,6.517,0,0,0-6.661,6.661,6.611,6.611,0,0,0,6.661,6.661,6.517,6.517,0,0,0,6.661-6.661A6.426,6.426,0,0,0,475.725,425.15Zm0,10.533a4.04,4.04,0,0,1,0-8.055,3.752,3.752,0,0,1,3.717,4.027A3.845,3.845,0,0,1,475.725,435.684ZM461.319,425.15a6.517,6.517,0,0,0-6.661,6.661,6.611,6.611,0,0,0,6.661,6.661,6.517,6.517,0,0,0,6.661-6.661A6.426,6.426,0,0,0,461.319,425.15Zm0,10.533a4.04,4.04,0,0,1,0-8.055,3.752,3.752,0,0,1,3.717,4.027A3.845,3.845,0,0,1,461.319,435.684Zm-17.194-8.52v2.788h6.661a5.857,5.857,0,0,1-1.549,3.563,6.856,6.856,0,0,1-5.112,2.014,7.212,7.212,0,0,1-7.28-7.435,7.307,7.307,0,0,1,7.28-7.435,7.681,7.681,0,0,1,5.112,2.014l2.014-2.014a9.926,9.926,0,0,0-6.97-2.788,10.225,10.225,0,1,0,0,20.447,8.914,8.914,0,0,0,7.125-2.943,9.325,9.325,0,0,0,2.478-6.506,5.811,5.811,0,0,0-.155-1.7Zm70.324,2.169a6.019,6.019,0,0,0-5.576-4.182c-3.408,0-6.2,2.633-6.2,6.661a6.482,6.482,0,0,0,6.506,6.661,6.354,6.354,0,0,0,5.422-2.943l-2.169-1.549a3.776,3.776,0,0,1-3.253,1.859,3.361,3.361,0,0,1-3.253-2.014l8.829-3.717-.31-.774Zm-8.984,2.169a3.763,3.763,0,0,1,3.408-3.872,2.74,2.74,0,0,1,2.478,1.394l-5.886,2.478Zm-7.28,6.351h2.943V418.49h-2.943Zm-4.647-11.308A5.1,5.1,0,0,0,489.975,425a6.656,6.656,0,0,0-6.351,6.661,6.414,6.414,0,0,0,6.351,6.506,4.448,4.448,0,0,0,3.408-1.549h.155v.93c0,2.478-1.394,3.872-3.563,3.872a3.442,3.442,0,0,1-3.253-2.323l-2.478,1.084a6.39,6.39,0,0,0,5.886,3.873c3.408,0,6.2-2.014,6.2-6.815V425.46h-2.788v1.084Zm-3.408,9.139a4.04,4.04,0,0,1,0-8.055,4.058,4.058,0,0,1,0,8.055Zm37.8-17.194h-6.97v19.362H523.9v-7.28h4.027a6.049,6.049,0,1,0,0-12.082Zm.155,9.294H523.9v-6.661h4.182a3.4,3.4,0,0,1,3.408,3.253,3.545,3.545,0,0,1-3.408,3.408ZM545.894,425c-2.169,0-4.337.929-5.112,2.943l2.633,1.084a2.736,2.736,0,0,1,2.633-1.394,2.911,2.911,0,0,1,3.1,2.478v.155a6.144,6.144,0,0,0-2.943-.774c-2.788,0-5.576,1.549-5.576,4.337a4.538,4.538,0,0,0,4.8,4.337,4.358,4.358,0,0,0,3.717-1.859h.155v1.549h2.788v-7.435a5.862,5.862,0,0,0-6.2-5.421Zm-.31,10.688c-.929,0-2.323-.465-2.323-1.7,0-1.549,1.7-2.014,3.1-2.014a5.986,5.986,0,0,1,2.633.62A3.608,3.608,0,0,1,545.584,435.684Zm16.264-10.224-3.253,8.365h-.155l-3.408-8.365h-3.1l5.112,11.772-2.943,6.506h2.943l7.9-18.278h-3.1Zm-26.023,12.392h2.943V418.49h-2.943Z" transform="translate(-390.487 -402.39)"/><path class="c" d="M248.391,353.686a3.029,3.029,0,0,0-.62,2.169v34.233a3.064,3.064,0,0,0,.774,2.169l.155.155L267.908,373.2v-.31Z" transform="translate(-247.771 -353.177)"/><path class="d" d="M339.79,421.973l-6.351-6.351v-.465l6.351-6.351.155.155,7.59,4.337c2.169,1.239,2.169,3.253,0,4.492Z" transform="translate(-313.457 -395.44)"/><path class="e" d="M276.3,443.2l-6.506-6.506-19.362,19.363c.775.774,1.859.774,3.253.155L276.3,443.2" transform="translate(-249.807 -416.827)"/><path class="f" d="M276.3,364.869,253.68,352.012c-1.394-.774-2.478-.62-3.253.155l19.362,19.207,6.506-6.506Z" transform="translate(-249.807 -351.503)"/></g></g></svg>