<svg xmlns="http://www.w3.org/2000/svg" width="149.946" height="64.094" viewBox="0 0 149.946 64.094"><defs><style>.a{fill:#010005;}.b{fill:#fff;}.c,.d{fill:#d2d0d2;}.d{stroke:#000;}</style></defs><g transform="translate(-0.054 -0.01)"><g transform="translate(0.054 0.01)"><path class="a" d="M110.751,35.182a18.612,18.612,0,0,0,.82-6.606c-.055-3.182-.055-6.391-.246-9.572a9.508,9.508,0,0,0-3.09-6.9,3.73,3.73,0,0,1-1.2-3.478c.137-1.079.875-1.537,1.941-1.753,3.2-.593,5.769.944,8.394,2.292a5.158,5.158,0,0,1,2.871,5.069,100.589,100.589,0,0,1-.492,11.136,96.362,96.362,0,0,0-.547,11.918c0,.3-.055.809.137,1.052,1.285-.566,1.449-3.317,1.367-4.476-.109-1.564-.574-3.128-.684-4.719-.137-2,.957-3.128,3.007-3.209,1.449-.054,2.925,0,4.375.054.684.027,1.066.324,1.094,1.132.164,2.993.383,5.986.629,8.979.082.971.437,1.78,1.5.89a2.809,2.809,0,0,0,1.094-2.265c0-2.238-.055-4.476-.055-6.714a2.485,2.485,0,0,1,2.023-2.535c1.449-.324,2.925-.647,4.375-.944,1.531-.3,2.3.3,2.269,1.834-.027,1.807-.137,3.613-.191,5.42-.027,1.079-.055,2.13,0,3.209.055,1.052.273,2.076.41,3.128.055.135.109.189.164.189a.656.656,0,0,0,.41-.3,2.546,2.546,0,0,0,.246-.728c.219-1.186.465-2.373,1.914-2.643,1.476-.3,3.062-.512,4.183.836,2.078,2.831,2.652,4.746,2.433,7.523a4.313,4.313,0,0,1-1.64,2.75,9.315,9.315,0,0,1-2.843,1.51,34.245,34.245,0,0,1-6.644,1.159,5.586,5.586,0,0,1-3.281-1.052c-.519-.324-.547-.728,0-1.079a4.838,4.838,0,0,0,1.066-.7,4.531,4.531,0,0,0,.984-1.726,19.264,19.264,0,0,1-2.6,2.157c-2.379,1.321-4.894,2.13-7.628,1.213-.957-.324-1.859-.728-2.816-1.025a1.4,1.4,0,0,0-.93.108,17.11,17.11,0,0,1-7.792,1.052A3.1,3.1,0,0,1,113.1,46.1a1.1,1.1,0,0,0-.984-.081c-1.832.782-3.636,1.483-5.96.728.109.944.246,1.564.273,2.211a24.171,24.171,0,0,1-1.394,10.166,5.932,5.932,0,0,1-2.871,3.182,18.063,18.063,0,0,1-7.464,1.78,19.441,19.441,0,0,1-12-3.667c-.93-.647-.957-1.025-.191-1.861,1.285-1.4,2.543-2.8,3.773-4.233a2.852,2.852,0,0,1,2.734-1.267c3.007.4,5.55-.971,8.093-2.346a34.45,34.45,0,0,0,6.562-5.123,10.722,10.722,0,0,0,2-2.75c-1.285.863-1.8,1.941-2.816,2.939-1.668,1.645-3.8,1.672-5.933,1.51a9.447,9.447,0,0,1-6.7-2.831c-.738,2-1.476,3.856-2.133,5.716-.957,2.75-4.457,6.741-6.644,8.9a11.607,11.607,0,0,1-3.664,2.4c-3.91,1.618-12.276,2.292-16.432,2.211a12.359,12.359,0,0,1-9.323-3.964c-2.871-3.182-3.035-9.491.984-12.377.41-.3,1.285-1,1.558-1.24a6.157,6.157,0,0,1-3.91-3.775,11.649,11.649,0,0,1-1.531,2.723c-1.75,2.049-5,2.912-7.546,2.669-.93-.081-1.859-.108-2.789-.108a7.439,7.439,0,0,1-2.625-.431,6.627,6.627,0,0,1-4.183-3.748,25.019,25.019,0,0,1-2.051,1.753C24.955,48.5,16.124,49.2,10.246,49.042a45.207,45.207,0,0,1-8.558-.971C.1,47.667-.226,47.1.13,45.644,1,42,5.188,29.574,7.074,22c.3-1.186.547-2.4.957-3.532.465-1.348,1.285-1.645,2.707-2a14.15,14.15,0,0,0,1.531-.4,3.94,3.94,0,0,1,2.98-.054c1.23.458,1.34,1.052,1.176,2.4-.164,1.4-.547,2.8-.848,4.341a6.773,6.773,0,0,0,4.511-3.182c1.64-2.589-.6-2.7-2.707-3.344-3.2-.971-6.808-1.213-9.6-2.13C2.126,12.155-.116,3.931,5.871.937,7.922-.087,12.707-.465,14.566.8a3.907,3.907,0,0,1,1.668,2.858c.191,1.483-.109,3.991-1.668,4.611-.82.324-3.226.108-3.582-.836-.355-.917.219-1.7.519-2.427a1.141,1.141,0,0,0-.766.27,2.739,2.739,0,0,0-.6,2.049,1.516,1.516,0,0,0,.191.593c.766,1.159,4.73,1.132,6.234,1.186a32.5,32.5,0,0,1,8.968,1.321,9.753,9.753,0,0,1,6.589,5.932,8.124,8.124,0,0,1-2.953,9.788c-.41.27-.82.539-1.258.782a12.593,12.593,0,0,1,4.566,4.4,10.5,10.5,0,0,1,7.519-5.77c3.527-.836,9.87.485,10.28,4.907.656-.836,1.285-1.591,1.832-2.373a7.414,7.414,0,0,1,6.152-3.505,5.44,5.44,0,0,1,2.707.539,4.908,4.908,0,0,0,1.722.431,7.452,7.452,0,0,1,4.621,2.831c.574.7.246,1.483-.383,2.076a10.3,10.3,0,0,1-4.347,1.267,2.254,2.254,0,0,1-1.23-.566c-1.586-1.51-2.187-1.456-3.527.566a27.238,27.238,0,0,0,5.113.782c2.816.243,3.855-1.079,5.578-3.02,1.64-1.807,3.336-4.179,5.058-5.42a10.373,10.373,0,0,1,9.733-.755c1.176.485,4.921.485,5.14,5.15.137,1.079-.6,1.618-1.64,1.618-3.582,0-7.191,0-9.925,2.939A5.43,5.43,0,0,0,75.809,38.5c.547,1.079,1.094,1.456,2.215.944a7.041,7.041,0,0,0,2.515-2.022,6.874,6.874,0,0,0,1.176-2.831c.738-3.8,3.91-4.8,6.917-3.155a58.875,58.875,0,0,1,4.347-4.287c2.379-1.914,5.195-2.157,8.23-1.7,1.8.27,3.2.836,4.046,2.508.109.189.711.27,1.066.216a3.238,3.238,0,0,1,4.046,3.424v3.559C110.423,35.479,110.559,35.4,110.751,35.182ZM47.867,31.461c1.5-.944,1.531-2.076.684-3.1a6.067,6.067,0,0,0-3.117-1.888c-5.878-1.079-9.979,3.721-11.237,8.682-.3,1.186-1.012.944-1.258-.027a10.352,10.352,0,0,0-6.179-7.5c-1.094-.458-.109-1.025.492-1.267a7.8,7.8,0,0,0,4.785-7.2,8.909,8.909,0,0,0-1.422-4.314c-1.859-2.8-4.976-3.91-8.175-4.53-3.8-.728-6.616-.485-10.225-.809A2.8,2.8,0,0,1,9.59,7.921a3.4,3.4,0,0,1,.738-3.236,1.421,1.421,0,0,1,1.586-.243.791.791,0,0,1,.273.944c-.055.162-.711,1.079-.465,1.726a1.783,1.783,0,0,0,1.066.485,2.7,2.7,0,0,0,2.269-.485,5.9,5.9,0,0,0,.465-3.829,3.42,3.42,0,0,0-1.476-1.968A7.032,7.032,0,0,0,9.07,1.072,5.853,5.853,0,0,0,5.653,3.634c-1.75,2.858-.027,6.687,2.679,8.359,2.023,1.267,9.3,1.807,12.549,2.723,2.351.485,3.363,1.4,3.281,3.64-.055,2-1.914,4.018-3.664,4.827a39.017,39.017,0,0,1-5,1.726c-.684.216-1.012-.243-.875-.917.383-2,.793-3.964,1.148-5.959a1.61,1.61,0,0,0-.027-.647c-.137-.566-1.148-.89-1.887-.917a2.452,2.452,0,0,0-2.433,1.941c-.355,1.294-.465,2.669-.766,3.991C9.453,27.767,8.25,33.16,6.965,38.5c-.656,2.7-1.476,5.366-2.269,8.062-.246.809.246,1.052.9,1.186a31.756,31.756,0,0,0,4.812.647c4.812.27,17.553-.836,20.615-5.2.848-1.213,1.394-2.589,2.133-3.883.629-1.106,1.066-.4,1.148.431.164,1.51,1.012,4.152,2.105,5.1a8.526,8.526,0,0,0,5.55,2.238c2.543,0,5.031-.512,6.534-2.562a12.375,12.375,0,0,0,2.269-8.763c-.027-.351.055-.89.273-1a2,2,0,0,1,1.312-.108c.164.054.219.674.219,1.052a23.978,23.978,0,0,0,.082,4.206c.492,2.616,1.5,4.988,4.621,5.609a15.024,15.024,0,0,0,2.871.4c3.308.027,6.562-1.348,7.437-5.015.41-1.726.766-3.451,1.039-5.177.109-.809.6-.863,1.121-.728.246.054.519.593.492.863-.137,1.106-.41,2.211-.629,3.317a5.763,5.763,0,0,0,1.722,5.636,7.705,7.705,0,0,0,4.511,2.157c3.718.512,6.534-.566,8.558-3.667.383-.593,1.148-.351,1.066.27a7.592,7.592,0,0,1-.875,3.182,14.787,14.787,0,0,1-4.019,4.692c-.41.3-.574.351-1.012.081a27.608,27.608,0,0,0-11.182-4.314c-3.254-.378-6.452-.674-9.651.3A7.3,7.3,0,0,0,53.308,52.9c-.711,2.966.41,5.42,2.843,7.28a12.211,12.211,0,0,0,7.409,2.454c4.128.027,9.569-.108,13.424-1.7a12.462,12.462,0,0,0,4.976-3.586c2.269-2.643,4.7-5.15,5.878-8.521A48.741,48.741,0,0,0,89.507,43.7a15.313,15.313,0,0,0,.246-3.883,32.514,32.514,0,0,0-.355-3.236,24.03,24.03,0,0,0-.492-3.128c-.465-1.645-1.258-2.1-3.144-1.888-.082.378-.191.782-.273,1.186-.328,1.645-.629,3.317-.984,4.961-.519,2.427-2.133,3.964-5.222,3.829a4.7,4.7,0,0,1-4.593-5.258c.574-4.179,3.828-6.148,7.519-6.687,1.558-.216,3.144-.135,4.7-.27a1.017,1.017,0,0,0,.738-.62,4.106,4.106,0,0,0-2.187-4.045,9.542,9.542,0,0,0-5.277-.566,13.66,13.66,0,0,0-9.05,6.337,5.838,5.838,0,0,1-4.839,2.939,68.563,68.563,0,0,1-8.421-.863.938.938,0,0,1-.629-1.483c1.148-1.861,4.429-2.885,6.015-1.052a2.255,2.255,0,0,0,.574.458,2.551,2.551,0,0,0,2.707-.728c.547-.647.055-1.052-.328-1.429A6.739,6.739,0,0,0,61.045,26.1a9.964,9.964,0,0,0-5.8,2.238c-.9.809-1.859,2.022-2.9,2.777a14.75,14.75,0,0,1-9.132,3.1c-1.148,0-3.062-.7-3.007-2.076a4.619,4.619,0,0,1,.437-1.4c.6-1.348,2.023-1.483,3.336-1.429A4.336,4.336,0,0,1,47.867,31.461Zm89.678,14.776a5.862,5.862,0,0,0,1.914,1c1.23.324,4.375-.243,5.523-.647,2.488-.89,4.593-2.157,4.347-5.015a13.037,13.037,0,0,0-2.57-5.77,1.488,1.488,0,0,0-1.531-.62c-1.039.243-1.066,1.294-1.176,2.157a2.269,2.269,0,0,1-1.476,1.914c-.9.378-2.57.162-2.6-.7-.191-1.645-.41-3.29-.437-4.934-.027-2.292.137-4.611.191-6.9.027-.755-.109-1.564-1.066-1.51a15.912,15.912,0,0,0-3.336.674c-1.039.324-1.312,1.025-1.066,2.1a14.133,14.133,0,0,1-.492,8.817,2.483,2.483,0,0,1-2.379,1.753c-.957,0-2.625-.539-2.843-1.591a16.93,16.93,0,0,1-.246-2.616c-.164-2.292-.273-4.584-.465-6.876a.968.968,0,0,0-.574-.674c-1.066-.108-2.133-.162-3.2-.189-1.914-.054-1.777.351-1.586,1.861.246,1.672.738,3.317,1.012,4.988.246,1.591.219,4.934-.738,6.094a2.46,2.46,0,0,1-2.843.674,2.384,2.384,0,0,1-1.34-2.454,92.446,92.446,0,0,1,.574-12.889,78.584,78.584,0,0,0,.465-9.842c.027-2.022-.328-4.018-2.461-5.042-1.914-.917-3.882-1.753-5.851-2.508-.82-.324-1.367.189-1.422,1.079-.082,1.159.738,1.807,1.476,2.454a5.442,5.442,0,0,1,2.16,3.667c.219,3.128.437,6.256.437,9.384s-.055,6.2-.355,9.411a11.645,11.645,0,0,1-2.105,6.175c-.547.809-1.531.539-1.586-.485-.109-2.238-.219-4.449-.219-6.687,0-.863-.027-2.292-.711-2.912A4.379,4.379,0,0,0,107.8,28.9c-.738-.351-1.23,0-1.394.944-.137.944-.246,1.887-.465,2.8-.6,2.427-1.422,4.746-3.5,6.364a4.643,4.643,0,0,1-4.921.27A3.59,3.59,0,0,1,95.959,34.7a7.716,7.716,0,0,1,5.878-4.773,14.606,14.606,0,0,0,2.023-.27.9.9,0,0,0,.6-1.132,1.849,1.849,0,0,0-.273-.674A3.728,3.728,0,0,0,101.1,26.2a9.4,9.4,0,0,0-6.753,2.831,11.677,11.677,0,0,0-3.609,10.7c.547,3.613,2.761,6.256,6.4,6.849,1.887.3,3.828.108,5.195-1.564,1.012-1.24,2.023-2.454,3.09-3.667.519-.62,1.2-.243,1.094.431a5.726,5.726,0,0,1-.547,1.914c-.437.728-.109,1.106.41,1.4a4.733,4.733,0,0,0,4.074.674c1.449-.539,2.871-1.079,3.609-2.616.219-.431,1.449-.836,1.23.512a12.06,12.06,0,0,1-.6,1.753,6.834,6.834,0,0,0,3.691,1.213c3.007-.027,5.878-.62,7.3-3.775a.871.871,0,0,1,.738-.4c.191.027.437.458.437.7a19.276,19.276,0,0,1-.328,2.184c.656.216,1.34.512,2.051.674,2.215.485,4.429.728,6.316-.836.738-.593,1.312-1.4,2-2.076.711-.7,1.34-.162,1.23.458A14.29,14.29,0,0,1,137.545,46.237ZM83.929,58.264a24.465,24.465,0,0,0,2.9,1.753,20.147,20.147,0,0,0,6.07,1.591,16.4,16.4,0,0,0,10.362-1.834,2.689,2.689,0,0,0,1.2-1.483,37.35,37.35,0,0,0,1.094-5.743,27.666,27.666,0,0,0-.191-5.42c-.137-1.186-.984-1.348-1.859-.539a28.953,28.953,0,0,1-2.543,2.292c-3.609,2.669-7.273,5.177-12.167,4.746a1.87,1.87,0,0,0-1.34.485C86.308,55.405,85.242,56.727,83.929,58.264Zm-73.164-40.9c.082-.324,0-.485-.437-.351-.574.27-1.258.62-1.449,1.106a42.093,42.093,0,0,0-1.2,4.126c-.738,2.777-1.422,5.582-2.242,8.332C4.067,35.155,2.481,39.658,1.2,44.242c-.738,2.589-.273,3.02,2.324,3.424C6.336,37.663,8.824,27.578,10.765,17.359Zm92.685,13.051c-.547.081-1.039.162-1.5.216a7.016,7.016,0,0,0-5.523,5.339,2.177,2.177,0,0,0,1.914,2.292c1.613.081,2.515-1.052,3.39-2.1C103.1,34.535,103.259,32.513,103.451,30.409Zm7.109,8.305c.082.216.219.27.437.108,1.176-1.726,1.586-2.723,1.887-6.283.082-1.079.137-2.157.191-3.236.109-2.265-.055-4.53-.082-6.795-.027-1.726-.027-3.451-.055-5.177-.027-1.968-.164-3.964-1.8-5.339-1.367-1.132-2.351-2.373-2.105-4.26,0-.054-.082-.108-.246-.324a6.723,6.723,0,0,0-.848.971c-.519.944-.219,2.13.9,3.128a9.636,9.636,0,0,1,3.144,6.984c.219,3.532.191,7.092.246,10.651a16.923,16.923,0,0,1-.957,6.364A8.687,8.687,0,0,0,110.559,38.714ZM55.5,46.049a3.206,3.206,0,0,1-.656.755c-.437.4-.957.728-1.422,1.132a7.259,7.259,0,0,0-2.57,7.927c.848,3.371,3.308,5.285,6.562,6.31-3.062-1.834-5.277-4.126-5.14-8.008.137-3.856,2.269-5.932,5.6-7.469A8.23,8.23,0,0,1,55.5,46.049ZM84.5,44.943a10.971,10.971,0,0,1-5.55,2.723,15.286,15.286,0,0,1-7.382-1.079A7.119,7.119,0,0,1,68.7,44.539c-.383-.458-.738-.944-.984-1.267A6.169,6.169,0,0,1,64,46.184a26.51,26.51,0,0,1,14.436,3.775c.6-1.834,2.078-1.914,3.527-2.7A5.467,5.467,0,0,0,84.5,44.943Zm-6.835-4.611c3.007.836,4.949.054,5.742-2.211a27.812,27.812,0,0,0,.957-3.667,27.027,27.027,0,0,0,.328-2.831c-1.64.782-2,2.076-2.324,3.4C81.742,37.5,80.594,39.577,77.668,40.332ZM15.769,24.1c1.285-.512,2.57-.944,3.8-1.564a6.128,6.128,0,0,0,3.418-3.371c.465-1.4.273-2.562-.875-3.1-1.668-.809-7.71-1.807-9.761-2.1-2.98-.431-5.195-.944-6.972-3.451-1.887-2.642-2.051-6.229.41-8.629-2.16.917-3.144,3.64-2.433,6.31a7.76,7.76,0,0,0,5.8,5.474c3.035.728,5.851.917,8.968,1.861.519.162,1.012.324,1.531.485,2.051.728,2.379,1.78.93,4.045a7.273,7.273,0,0,1-4.4,3.236C15.659,23.56,15.523,23.7,15.769,24.1ZM119.828,39.011a1.6,1.6,0,0,0,2.57-.728,6.936,6.936,0,0,0,.273-4.341c-.437-2.157-.82-4.341-1.23-6.525-.055-.243-.164-.216-.3-.054a3.377,3.377,0,0,0-.437,2.076,20.092,20.092,0,0,0,.492,2.8C121.632,34.67,122.015,37.1,119.828,39.011Zm11.4-1.483c-.109.27-.027.378.3.27a2.07,2.07,0,0,0,1.148-.944,10.832,10.832,0,0,0,1.176-6.337c-.164-1.294-.437-2.589-.656-3.856-.082-.027-.164-.081-.246-.108a7.029,7.029,0,0,0-.6,1.861c-.055,1.807.055,3.613.082,5.42C132.459,35.155,132.487,36.53,131.229,37.528ZM99.842,62.389c-5.878.539-11.62.512-16.569-3.532-.109.135-.273.27-.41.431-.027.027,0,.135.027.27C88.085,63.225,93.69,64.384,99.842,62.389ZM67.17,32.135a5.211,5.211,0,0,0,3.117-2.1c.684-.89,1.394-1.807,2.16-2.643a15.3,15.3,0,0,1,6.206-4.018,7.485,7.485,0,0,0-5.55,2.265c-1.668,1.753-3.2,3.856-4.812,5.528C67.99,31.461,67.607,31.785,67.17,32.135ZM47.1,33.16c.219-.189.164-.27-.027-.324-.656-.054-.93.081-1.531-.243-1.258-.647-2.461-1.4-3.664-2.1-.984,1.456-.9,2.454.219,2.831a10.022,10.022,0,0,0,3.8.108A6.953,6.953,0,0,0,47.1,33.16Zm52.8,5.582c-.219.27-.082.351.191.351,3.664-.431,5.113-5.15,5.6-9.168.027-.3-.082-.3-.3-.162-.437.324-1.23.971-1.285,1.726C103.806,34.589,102.74,37.124,99.9,38.741ZM90.108,34.1a26.809,26.809,0,0,1,1.449-2.966A15.076,15.076,0,0,1,93.69,28.36a26.059,26.059,0,0,1,2.652-2.022A10.386,10.386,0,0,0,90.9,30.032C89.835,31.3,88.987,32.54,90.108,34.1ZM51.5,30.787a26.345,26.345,0,0,0,2-1.887,10.163,10.163,0,0,1,3.992-2.966,9.26,9.26,0,0,1,2.187-.539C56.288,24.531,53.089,27.228,51.5,30.787ZM33.622,33.618c.875-2.723,2.105-5.015,4.511-6.5.109-.108-.055-.135-.164-.108a1.455,1.455,0,0,0-.6.216,9.247,9.247,0,0,0-3.937,4.152A1.824,1.824,0,0,0,33.622,33.618Zm-.328,7.55c-.191.62-.629,1.267-.519,1.807.383,1.7,2.871,3.505,4.757,3.613C34.989,45.7,34.142,43.568,33.294,41.168Zm18.291-1.537c-.957,1.7.328,4.341,1.969,4.961-.383-.755-.848-1.564-1.176-2.4C52.05,41.33,51.831,40.467,51.585,39.631Zm30.84,8.6c-1.285.351-2.789.351-3.172,1.968.246.135.547.27.82.4A12.2,12.2,0,0,0,82.426,48.233Zm-35.6-16.071c.191.054.246-.054.109-.324a3.348,3.348,0,0,0-3.828-1.51C44.34,30.922,45.6,31.542,46.828,32.162ZM142.083,38.5c1.476-.836.957-2.184,1.394-3.155C142.22,35.964,142.056,37.043,142.083,38.5Z" transform="translate(0 0)"/><path class="a" d="M8.7,12.454c-3.308.512-7.382-.081-8.476-3.667a8.659,8.659,0,0,1,.6-5.609A7.62,7.62,0,0,1,5.306.186,9.638,9.638,0,0,1,9.325.239C16.16,1.8,13.919,11.645,8.7,12.454ZM5.142,10.7A4.124,4.124,0,0,0,8.505,7.843,4.637,4.637,0,0,0,4.568,2.1,3.207,3.207,0,0,0,1.15,4.176c-.6,1.834-.875,5.069,1.2,6.094A4.7,4.7,0,0,0,5.142,10.7Zm.246.809C12.223,13.829,16.325,2.45,8.56,1.021a5.168,5.168,0,0,0-3.8.512A5.122,5.122,0,0,1,9.243,8.086C8.806,9.731,7.439,10.836,5.388,11.51Z" transform="translate(12.869 29.442)"/><path class="a" d="M4.772,6.869C3.432,6.68,1.108,5.764.343,4.577a2.6,2.6,0,0,1,.766-3.344C3.213-.519,7.615-.222,10.049.991c.738.378,1.449.809,2.16,1.24A23.288,23.288,0,0,1,14.7,4.038c.574.458.492.944-.246,1.159C11.689,5.979,7.643,7.274,4.772,6.869Zm6.863-1.537C9.146,3.607,3.6,2.312.725,3.634c.465,1.294,2.9,2.373,4.621,2.481A19.528,19.528,0,0,0,11.634,5.332ZM1.218,2.555c1.969-.62,7.491-.324,11.237,2.157.3.189.875-.054,1.558-.135C9.392.425,3.459.182,1.218,2.555Z" transform="translate(59.992 49.803)"/><path class="a" d="M10.31,3.163A5.7,5.7,0,0,1,6.92,8.206,4.846,4.846,0,0,1,0,4,14.742,14.742,0,0,1,.44.548C.494.305.713-.126,1.479.035c2,.243,3.964.593,5.96.863.684.108,1.34.135,2,.243C10.447,1.33,10.447,1.411,10.31,3.163ZM1.1.575C.959,1.384.768,2.058.713,2.759A7.293,7.293,0,0,0,.823,4.943c.109.431.492,1.052.875,1.133A4.674,4.674,0,0,0,7.111,2.3a.68.68,0,0,0-.547-.809C4.814,1.141,2.982.871,1.1.575ZM7.958,1.761C7.958,5,5.17,6.8,2.19,6.83a3.926,3.926,0,0,0,4.867.243A5.875,5.875,0,0,0,9.462,1.95C8.833,1.869,8.478,1.788,7.958,1.761Z" transform="translate(55.247 34.257)"/><path class="a" d="M.178.671A.38.38,0,0,1,.233.509.683.683,0,0,1,1.491.348C3.432,2.4,7.15,2.1,9.884,1.723c.684-.108,1.012.135.957.863-.3,3.91-2.871,6.121-6.917,5.393C.534,7.358-.45,3.691.178.671Zm.547.836C.616,2.774.917,5.2,1.928,6.172A2.9,2.9,0,0,0,5.264,6.6,4.8,4.8,0,0,0,7.943,2.882,12.425,12.425,0,0,1,.725,1.507ZM8.6,2.828C8.709,4.851,7.314,5.956,5.947,7.25A4.4,4.4,0,0,0,9.857,2.64C9.474,2.694,9.091,2.747,8.6,2.828Z" transform="translate(37.026 34.888)"/><path class="b" d="M17.043,41.3c-3.308.512-7.382-.081-8.476-3.667a8.659,8.659,0,0,1,.6-5.609,7.62,7.62,0,0,1,4.484-2.993,9.638,9.638,0,0,1,4.019.054C24.507,30.646,22.265,40.488,17.043,41.3ZM32.682,34.96a.38.38,0,0,1,.055-.162.683.683,0,0,1,1.258-.162c1.941,2.049,5.66,1.753,8.394,1.375.684-.108,1.012.135.957.863-.3,3.91-2.871,6.121-6.917,5.393C33.037,41.648,32.053,37.98,32.682,34.96Zm-6.234,7.523c.848-1.213,1.394-2.589,2.133-3.883.629-1.106,1.066-.4,1.148.431.164,1.51,1.012,4.152,2.105,5.1a8.526,8.526,0,0,0,5.55,2.238c2.543,0,5.031-.512,6.534-2.562a12.375,12.375,0,0,0,2.269-8.763c-.027-.351.055-.89.273-1a2,2,0,0,1,1.312-.108c.164.054.219.674.219,1.052a23.978,23.978,0,0,0,.082,4.206c.492,2.616,1.5,4.988,4.621,5.609a15.024,15.024,0,0,0,2.871.4c3.308.027,6.562-1.348,7.437-5.015.41-1.726.766-3.451,1.039-5.177.109-.809.6-.863,1.121-.728.246.054.519.593.492.863-.137,1.106-.41,2.211-.629,3.317A5.763,5.763,0,0,0,66.749,44.1a7.705,7.705,0,0,0,4.511,2.157c3.718.512,6.534-.566,8.558-3.667.383-.593,1.148-.351,1.066.27a7.592,7.592,0,0,1-.875,3.182,14.787,14.787,0,0,1-4.019,4.692c-.41.3-.574.351-1.012.081A27.607,27.607,0,0,0,63.8,46.5c-3.254-.378-6.452-.674-9.651.3a7.3,7.3,0,0,0-5.413,5.393c-.711,2.966.41,5.42,2.843,7.28a12.211,12.211,0,0,0,7.409,2.454c4.128.027,9.569-.108,13.424-1.7a12.463,12.463,0,0,0,4.976-3.586c2.269-2.643,4.7-5.15,5.878-8.521A48.741,48.741,0,0,0,84.93,43a15.312,15.312,0,0,0,.246-3.883,32.512,32.512,0,0,0-.355-3.236,24.028,24.028,0,0,0-.492-3.128c-.465-1.645-1.258-2.1-3.144-1.887-.082.377-.191.782-.273,1.186-.328,1.645-.629,3.317-.984,4.961-.519,2.427-2.133,3.964-5.222,3.829a4.7,4.7,0,0,1-4.593-5.258c.574-4.179,3.828-6.148,7.519-6.687,1.558-.216,3.144-.135,4.7-.27a1.017,1.017,0,0,0,.738-.62,4.106,4.106,0,0,0-2.187-4.045,9.542,9.542,0,0,0-5.277-.566,13.66,13.66,0,0,0-9.05,6.337,5.838,5.838,0,0,1-4.839,2.939,68.562,68.562,0,0,1-8.421-.863.938.938,0,0,1-.629-1.483c1.148-1.861,4.429-2.885,6.015-1.052a2.255,2.255,0,0,0,.574.458A2.551,2.551,0,0,0,61.964,29c.547-.647.055-1.052-.328-1.429a6.739,6.739,0,0,0-5.167-2.184,9.964,9.964,0,0,0-5.8,2.238c-.9.809-1.859,2.022-2.9,2.777a14.75,14.75,0,0,1-9.132,3.1c-1.148,0-3.062-.7-3.007-2.076a4.619,4.619,0,0,1,.437-1.4c.6-1.348,2.023-1.483,3.336-1.429a4.372,4.372,0,0,1,3.828,2.13c1.5-.944,1.531-2.076.684-3.1A6.067,6.067,0,0,0,40.8,25.739c-5.878-1.079-9.979,3.721-11.237,8.682-.3,1.186-1.012.944-1.258-.027a10.352,10.352,0,0,0-6.179-7.5c-1.094-.458-.109-1.025.492-1.267a7.8,7.8,0,0,0,4.785-7.2,8.909,8.909,0,0,0-1.422-4.314c-1.859-2.8-4.976-3.91-8.175-4.53-3.8-.728-6.616-.485-10.225-.809A2.8,2.8,0,0,1,4.958,7.187,3.4,3.4,0,0,1,5.7,3.951a1.421,1.421,0,0,1,1.586-.243.791.791,0,0,1,.273.944c-.055.162-.711,1.079-.465,1.726a1.783,1.783,0,0,0,1.066.485,2.7,2.7,0,0,0,2.269-.485,5.9,5.9,0,0,0,.465-3.829A3.42,3.42,0,0,0,9.415.581,7.032,7.032,0,0,0,4.439.338,5.853,5.853,0,0,0,1.021,2.9C-.728,5.758.994,9.587,3.7,11.259c2.023,1.267,9.3,1.807,12.549,2.723,2.351.485,3.363,1.4,3.281,3.64-.055,2-1.914,4.018-3.664,4.827a39.017,39.017,0,0,1-5,1.726c-.684.216-1.012-.243-.875-.917.383-2,.793-3.964,1.148-5.959a1.61,1.61,0,0,0-.027-.647c-.137-.566-1.148-.89-1.887-.917A2.452,2.452,0,0,0,6.79,17.676c-.355,1.294-.465,2.669-.766,3.991-1.2,5.366-2.406,10.759-3.691,16.1-.656,2.7-1.476,5.366-2.269,8.062-.246.809.246,1.052.9,1.186a31.757,31.757,0,0,0,4.812.647C10.673,47.957,23.414,46.879,26.448,42.483Zm24.279-4.827a14.742,14.742,0,0,1,.437-3.451c.055-.243.273-.674,1.039-.512,2,.243,3.964.593,5.96.863.684.108,1.34.135,2,.243,1.039.162,1.012.27.9,2.022a5.7,5.7,0,0,1-3.39,5.042A4.854,4.854,0,0,1,50.727,37.657Zm9.515,18.417c-1.34-.189-3.664-1.106-4.429-2.292a2.6,2.6,0,0,1,.766-3.344c2.105-1.753,6.507-1.456,8.94-.243.738.377,1.449.809,2.16,1.24a23.287,23.287,0,0,1,2.488,1.807c.574.458.492.944-.246,1.159C67.159,55.184,63.112,56.478,60.242,56.073Z" transform="translate(4.522 0.599)"/><path class="b" d="M.172,32.212c.547,3.613,2.761,6.256,6.4,6.849,1.887.3,3.828.108,5.195-1.564,1.012-1.24,2.023-2.454,3.09-3.667.519-.62,1.2-.243,1.094.431a5.726,5.726,0,0,1-.547,1.914c-.437.728-.109,1.106.41,1.4a4.733,4.733,0,0,0,4.074.674c1.449-.539,2.871-1.079,3.609-2.616.219-.431,1.449-.836,1.23.512a12.058,12.058,0,0,1-.6,1.753,6.834,6.834,0,0,0,3.691,1.213c3.007-.027,5.878-.62,7.3-3.775a.871.871,0,0,1,.738-.4c.191.027.437.458.437.7a19.277,19.277,0,0,1-.328,2.184c.656.216,1.34.512,2.051.674,2.215.485,4.429.728,6.316-.836.738-.593,1.312-1.4,2-2.076.711-.7,1.34-.162,1.23.458-.137.863-.41,1.726-.684,2.8a5.862,5.862,0,0,0,1.914,1c1.23.324,4.375-.243,5.523-.647,2.488-.89,4.593-2.157,4.347-5.015a13.036,13.036,0,0,0-2.57-5.77,1.488,1.488,0,0,0-1.531-.62c-1.039.243-1.066,1.294-1.176,2.157A2.269,2.269,0,0,1,51.9,31.861c-.9.378-2.57.162-2.6-.7-.191-1.645-.41-3.29-.437-4.934-.027-2.292.137-4.611.191-6.9.027-.755-.109-1.564-1.066-1.51a15.912,15.912,0,0,0-3.336.674c-1.039.324-1.312,1.025-1.066,2.1a14.133,14.133,0,0,1-.492,8.817,2.483,2.483,0,0,1-2.379,1.753c-.957,0-2.625-.539-2.843-1.591a16.929,16.929,0,0,1-.246-2.616c-.164-2.292-.273-4.584-.465-6.876a.968.968,0,0,0-.574-.674c-1.066-.108-2.133-.162-3.2-.189-1.914-.054-1.777.351-1.586,1.861.246,1.672.738,3.317,1.012,4.988.246,1.591.219,4.934-.738,6.094a2.46,2.46,0,0,1-2.843.674,2.384,2.384,0,0,1-1.34-2.454A92.448,92.448,0,0,1,28.47,17.49a78.583,78.583,0,0,0,.465-9.842c.027-2.022-.328-4.018-2.461-5.042C24.56,1.688,22.592.853,20.623.1,19.8-.226,19.256.286,19.2,1.176c-.082,1.159.738,1.807,1.476,2.454A5.442,5.442,0,0,1,22.838,7.3c.219,3.128.437,6.256.437,9.384s-.055,6.2-.355,9.411a11.645,11.645,0,0,1-2.105,6.175c-.547.809-1.531.539-1.586-.485-.109-2.238-.219-4.449-.219-6.687,0-.863-.027-2.292-.711-2.912a4.38,4.38,0,0,0-1.176-.674c-.738-.351-1.23,0-1.394.944-.137.944-.246,1.888-.465,2.8-.6,2.427-1.422,4.746-3.5,6.364a4.643,4.643,0,0,1-4.921.27A3.59,3.59,0,0,1,5.285,27.3a7.716,7.716,0,0,1,5.878-4.773,14.606,14.606,0,0,0,2.023-.27.9.9,0,0,0,.6-1.133,1.849,1.849,0,0,0-.273-.674,3.728,3.728,0,0,0-3.09-1.645,9.4,9.4,0,0,0-6.753,2.831A11.41,11.41,0,0,0,.172,32.212Z" transform="translate(90.648 7.473)"/><path class="b" d="M17.061,2.821C13.452,5.49,9.788,8,4.894,7.566a1.87,1.87,0,0,0-1.34.485C2.379,9.292,1.312,10.64,0,12.177A24.465,24.465,0,0,0,2.9,13.93a20.147,20.147,0,0,0,6.07,1.591A16.4,16.4,0,0,0,19.33,13.687a2.689,2.689,0,0,0,1.2-1.483,37.351,37.351,0,0,0,1.094-5.743,27.666,27.666,0,0,0-.191-5.42C21.3-.145,20.451-.307,19.576.5A33.927,33.927,0,0,1,17.061,2.821Z" transform="translate(83.903 46.113)"/><path class="c" d="M2.631,30.733C5.474,20.7,7.935,10.618,9.9.4c.082-.324,0-.485-.437-.351-.574.27-1.258.62-1.449,1.106a42.093,42.093,0,0,0-1.2,4.126c-.738,2.777-1.422,5.582-2.242,8.332C3.2,18.195,1.619,22.7.334,27.282-.432,29.87.033,30.329,2.631,30.733Z" transform="translate(0.863 16.96)"/><path class="c" d="M0,.643A5.122,5.122,0,0,1,4.484,7.2C4.046,8.814,2.652,9.946.6,10.62,7.437,12.939,11.538,1.56,3.773.131A5.074,5.074,0,0,0,0,.643Z" transform="translate(17.628 30.332)"/><path class="c" d="M16.442,20.655a6.128,6.128,0,0,0,3.418-3.371c.465-1.4.273-2.562-.875-3.1-1.668-.809-7.71-1.807-9.761-2.1-2.98-.431-5.195-.944-6.972-3.451C.365,5.986.2,2.4,2.662,0,.5.917-.482,3.64.229,6.31a7.76,7.76,0,0,0,5.8,5.474c3.035.728,5.851.917,8.968,1.861.519.162,1.012.324,1.531.485,2.051.728,2.379,1.78.93,4.045a7.273,7.273,0,0,1-4.4,3.236c-.519.27-.656.378-.383.809C13.926,21.679,15.239,21.248,16.442,20.655Z" transform="translate(3.128 1.908)"/><path class="c" d="M2.652.189C2.761,2.211,1.367,3.317,0,4.611A4.4,4.4,0,0,0,3.91,0Z" transform="translate(42.973 37.528)"/><path class="c" d="M0,.156,3.691,1.99c.191.054.246-.054.109-.324A3.361,3.361,0,0,0,0,.156Z" transform="translate(43.137 30.146)"/><path class="c" d="M4.8,5.42C2.232,4.53,1.384,2.373.537,0,.345.62-.092,1.267.017,1.807.427,3.478,2.915,5.312,4.8,5.42Z" transform="translate(32.758 41.195)"/><path class="c" d="M.49,6.616C1.365,3.893,2.595,1.6,5,.118,5.11.01,4.946-.017,4.837.01a1.455,1.455,0,0,0-.6.216A9.247,9.247,0,0,0,.3,4.378,1.824,1.824,0,0,0,.49,6.616Z" transform="translate(33.133 27.002)"/><path class="c" d="M.328,0C-.629,1.7.656,4.341,2.3,4.961c-.383-.755-.848-1.564-1.176-2.4C.792,1.7.574.836.328,0Z" transform="translate(51.258 39.631)"/><path class="c" d="M0,5.069a3.926,3.926,0,0,0,4.867.243A5.875,5.875,0,0,0,7.273.189C6.616.108,6.261.027,5.742,0,5.769,3.209,2.98,5.042,0,5.069Z" transform="translate(57.437 36.018)"/><path class="c" d="M2,3.667A10.163,10.163,0,0,1,5.988.7,9.261,9.261,0,0,1,8.175.162C4.785-.7,1.586,2,0,5.555A26.126,26.126,0,0,0,2,3.667Z" transform="translate(51.504 25.232)"/><path class="c" d="M11.483.029a7.485,7.485,0,0,0-5.55,2.265C4.265,4.047,2.734,6.15,1.121,7.822A8.417,8.417,0,0,1,0,8.82a5.211,5.211,0,0,0,3.117-2.1c.684-.89,1.394-1.807,2.16-2.642A16.033,16.033,0,0,1,11.483.029Z" transform="translate(67.143 23.342)"/><path class="c" d="M4.7,3.424C4.074,5.905,2.925,7.981,0,8.709c3.007.836,4.949.054,5.742-2.211A27.813,27.813,0,0,0,6.7,2.831,27.028,27.028,0,0,0,7.027,0C5.386.809,5.031,2.1,4.7,3.424Z" transform="translate(77.669 31.596)"/><path class="c" d="M3.172,0C1.887.351.383.351,0,1.968l.82.4A12.2,12.2,0,0,0,3.172,0Z" transform="translate(79.255 48.233)"/><path class="c" d="M12.8,3.558C8.175-.622,2.242-.864,0,1.509c1.969-.62,7.491-.324,11.237,2.157C11.565,3.854,12.112,3.639,12.8,3.558Z" transform="translate(61.21 50.85)"/><path class="c" d="M1.716,8.089C1.853,4.233,3.985,2.157,7.321.62A6.146,6.146,0,0,1,4.942,0a3.206,3.206,0,0,1-.656.755c-.437.4-.957.728-1.422,1.132A7.259,7.259,0,0,0,.294,9.815c.848,3.371,3.308,5.285,6.562,6.31C3.767,14.264,1.552,11.972,1.716,8.089Z" transform="translate(50.581 46.049)"/><path class="d" d="M16.99,3.532C11.112,4.072,5.37,4.045.421,0,.312.135.148.27.011.431-.016.458.011.566.039.7,5.233,4.368,10.838,5.528,16.99,3.532Z" transform="translate(82.852 58.857)"/><path class="d" d="M.286,9.416C3.949,8.985,5.4,4.266,5.891.249c.027-.3-.082-.3-.3-.162C5.152.41,4.36,1.057,4.3,1.812,4.031,4.886,2.993,7.421.122,9.039-.124,9.335.04,9.389.286,9.416Z" transform="translate(99.775 29.676)"/><path class="d" d="M.53,7.766A26.809,26.809,0,0,1,1.979,4.8,15.076,15.076,0,0,1,4.111,2.022,26.06,26.06,0,0,1,6.763,0,10.386,10.386,0,0,0,1.322,3.694C.256,4.961-.591,6.2.53,7.766Z" transform="translate(89.579 26.338)"/><path class="d" d="M4.512,21.76a16.923,16.923,0,0,1-.957,6.364,8.2,8.2,0,0,0-.684,3.182c.082.216.219.27.437.108C4.485,29.688,4.895,28.69,5.2,25.131c.082-1.079.137-2.157.191-3.236.109-2.265-.055-4.53-.082-6.8-.027-1.726-.027-3.451-.055-5.177-.027-1.968-.164-3.964-1.8-5.339C2.079,3.451,1.094,2.211,1.34.324,1.34.27,1.258.216,1.094,0A6.723,6.723,0,0,0,.247.971c-.519.944-.219,2.13.9,3.128a9.636,9.636,0,0,1,3.144,6.984C4.485,14.642,4.485,18.2,4.512,21.76Z" transform="translate(107.688 7.436)"/><path class="d" d="M1.367,5.005C1.8,7.432,2.187,9.859,0,11.773a1.6,1.6,0,0,0,2.57-.728A6.936,6.936,0,0,0,2.843,6.7c-.437-2.157-.82-4.341-1.23-6.525-.055-.243-.164-.216-.3-.054A3.377,3.377,0,0,0,.875,2.2,20.092,20.092,0,0,0,1.367,5.005Z" transform="translate(119.828 27.238)"/><path class="d" d="M1.167,1.834c-.055,1.807.055,3.613.082,5.42C1.276,8.6,1.3,9.977.046,10.974c-.109.27-.027.377.3.27A2.07,2.07,0,0,0,1.495,10.3,10.832,10.832,0,0,0,2.67,3.964C2.506,2.669,2.233,1.375,2.014.108L1.768,0A6.856,6.856,0,0,0,1.167,1.834Z" transform="translate(131.184 26.553)"/><path class="d" d="M1.394,0C.137.62,0,1.726,0,3.155,1.5,2.319.984.971,1.394,0Z" transform="translate(142.056 35.344)"/></g></g></svg>