<svg xmlns="http://www.w3.org/2000/svg" width="94" height="94" viewBox="0 0 94 94"><defs><style>.a,.b{fill:#ff7f3d;}.a{opacity:0;}</style></defs><g transform="translate(-258 -6468)"><rect class="a" width="94" height="94" transform="translate(258 6468)"/><g transform="translate(265.7 6478.549)"><g transform="translate(12.3 2.451)"><path class="b" d="M26.376,16.155a2.249,2.249,0,0,0,1.861-1,16.638,16.638,0,0,1,23.045-4.509l1.861,1.288-3.006.573a2.276,2.276,0,0,0-1.789,2.648,2.227,2.227,0,0,0,2.219,1.789A.908.908,0,0,0,51,16.871l8.373-1.646a2.408,2.408,0,0,0,1.431-.93,2.366,2.366,0,0,0,.358-1.718l-1.718-8.3A2.26,2.26,0,1,0,55,5.134l.573,3.006L53.715,6.852a21.043,21.043,0,0,0-29.271,5.725,2.241,2.241,0,0,0,.644,3.149A2.309,2.309,0,0,0,26.376,16.155Z" transform="translate(-15.641 -2.451)"/><path class="b" d="M57.011,79.075a16.638,16.638,0,0,1-23.045,4.509L32.106,82.3l3.006-.573a2.26,2.26,0,1,0-.859-4.437l-8.373,1.646a2.408,2.408,0,0,0-1.431.93,2.366,2.366,0,0,0-.358,1.718l1.718,8.373a2.227,2.227,0,0,0,2.219,1.789.908.908,0,0,0,.429-.072,2.276,2.276,0,0,0,1.789-2.648l-.573-3.006,1.861,1.288A20.969,20.969,0,0,0,43.27,90.884a19.753,19.753,0,0,0,4.079-.429A20.833,20.833,0,0,0,60.8,81.508a2.241,2.241,0,0,0-.644-3.149A2.437,2.437,0,0,0,57.011,79.075Z" transform="translate(-15.645 -23.718)"/><path class="b" d="M51.337,30.619a2.219,2.219,0,1,0-4.437,0v1.5a2.219,2.219,0,0,0,4.437,0Z" transform="translate(-22.138 -9.829)"/><path class="b" d="M51.337,42.219a2.219,2.219,0,1,0-4.437,0v1.5a2.219,2.219,0,1,0,4.437,0Z" transform="translate(-22.138 -13.127)"/><path class="b" d="M51.337,53.919a2.219,2.219,0,0,0-4.437,0v1.5a2.219,2.219,0,1,0,4.437,0Z" transform="translate(-22.138 -16.454)"/><path class="b" d="M49.119,63.3A2.23,2.23,0,0,0,46.9,65.519v1.5a2.219,2.219,0,0,0,4.437,0v-1.5A2.278,2.278,0,0,0,49.119,63.3Z" transform="translate(-22.138 -19.752)"/><path class="b" d="M32.339,45.08a2.159,2.159,0,0,0-1-1.861l-15.6-10.163a2.2,2.2,0,0,0-2.29-.072,2.284,2.284,0,0,0-1.145,2V55.243a2.284,2.284,0,0,0,1.145,2,2.02,2.02,0,0,0,1.074.286,2.413,2.413,0,0,0,1.217-.358l15.53-10.163A2.451,2.451,0,0,0,32.339,45.08Zm-15.53,6.012V39.069l9.161,6.012Z" transform="translate(-12.3 -11.05)"/><path class="b" d="M78.622,33a2.371,2.371,0,0,0-2.29.072L60.8,43.231a2.229,2.229,0,0,0,0,3.722l15.53,10.163a2.413,2.413,0,0,0,1.217.358,2.02,2.02,0,0,0,1.074-.286,2.2,2.2,0,0,0,1.145-2V34.929A2.171,2.171,0,0,0,78.622,33ZM75.259,51.1,66.1,45.092l9.161-6.012Z" transform="translate(-25.805 -11.062)"/></g></g></g></svg>