<svg xmlns="http://www.w3.org/2000/svg" width="94" height="94" viewBox="0 0 94 94"><defs><style>.a,.b{fill:#ff7f3d;}.a{opacity:0;}</style></defs><g transform="translate(-666 -6943)"><rect class="a" width="94" height="94" transform="translate(666 6943)"/><g transform="translate(683.614 6960.511)"><g transform="translate(4.667 6)"><path class="b" d="M16.92,18.866a.919.919,0,0,1,.919-.919H36.817a12.492,12.492,0,0,1,8.769,3.676,11.672,11.672,0,0,1,3.5,8.291,11.994,11.994,0,0,1-.361,2.922l4.651,3.492A17.47,17.47,0,0,0,37.139,12.433h-19.3a.919.919,0,0,1-.919-.919V6L4.667,15.19l12.253,9.19Z" transform="translate(-4.667 -6)"/><path class="b" d="M54.934,46.138,42.68,36.947v5.514a.919.919,0,0,1-.919.919H22.783A12.492,12.492,0,0,1,14.014,39.7a11.672,11.672,0,0,1-3.5-8.291,11.994,11.994,0,0,1,.361-2.922L6.224,25A17.47,17.47,0,0,0,22.462,48.895h19.3a.919.919,0,0,1,.919.919v5.514Z" transform="translate(-4.694 -7.538)"/></g></g></g></svg>