<svg xmlns="http://www.w3.org/2000/svg" width="94" height="94" viewBox="0 0 94 94"><defs><style>.a,.b{fill:#ff7f3d;}.a{opacity:0;}.b{fill-rule:evenodd;}</style></defs><g transform="translate(-666 -6468)"><rect class="a" width="94" height="94" transform="translate(666 6468)"/><g transform="translate(682 6483)"><path class="b" d="M17.868,9.623A4.623,4.623,0,0,1,22.491,5H52.539a4.623,4.623,0,0,1,4.623,4.623V39.671a4.623,4.623,0,0,1-4.623,4.623H50.228a2.311,2.311,0,1,1,0-4.623h2.311V9.623H22.491v2.311a2.311,2.311,0,1,1-4.623,0Zm2.308,9.246H8.623A4.623,4.623,0,0,0,4,23.491V53.539a4.623,4.623,0,0,0,4.623,4.623H38.671a4.623,4.623,0,0,0,4.623-4.623V23.491a4.623,4.623,0,0,0-4.623-4.623H20.177Zm18.494,20.8H22.491V23.491h16.18Zm0,4.623v9.246H8.623V23.491h9.246v16.18a4.623,4.623,0,0,0,4.623,4.623Z" transform="translate(0 0)"/></g></g></svg>