<svg xmlns="http://www.w3.org/2000/svg" width="94" height="94" viewBox="0 0 94 94"><defs><style>.a,.b{fill:#ff7f3d;}.a{opacity:0;}</style></defs><g transform="translate(-1077 -6943)"><rect class="a" width="94" height="94" transform="translate(1077 6943)"/><g transform="translate(1077 6940)"><path class="b" d="M62,33.42v8.32C69.17,44,74,48.19,74,53c0,5.25-5.74,9.76-14,11.82V73c13-2.6,22-10.34,22-20C82,43.84,73.95,36.41,62,33.42Z"/><path class="b" d="M42,65.26C32.68,63.47,26,58.66,26,53c0-4.81,4.83-9,12-11.26V33.42C26.05,36.41,18,43.84,18,53c0,10.14,9.88,18.17,24,20.38V82L54,70,42,58Z"/><circle class="b" cx="4" cy="4" r="4" transform="translate(46 48)"/><circle class="b" cx="4" cy="4" r="4" transform="translate(46 33)"/><circle class="b" cx="4" cy="4" r="4" transform="translate(46 18)"/></g></g></svg>