<svg xmlns="http://www.w3.org/2000/svg" width="94" height="94" viewBox="0 0 94 94"><defs><style>.a,.b{fill:#ff7f3d;}.a{opacity:0;}</style></defs><g transform="translate(-258 -6943)"><rect class="a" width="94" height="94" transform="translate(258 6943)"/><g transform="translate(270.044 6961.581)"><g transform="translate(5.017 9)"><path class="b" d="M32.266,47.532A19.266,19.266,0,1,1,51.532,28.266,19.266,19.266,0,0,1,32.266,47.532Zm0-33.028A13.762,13.762,0,1,0,46.028,28.266,13.762,13.762,0,0,0,32.266,14.5Z" transform="translate(8.973 -9)"/><path class="b" d="M18.3,41.949a2.752,2.752,0,0,1-1.651-.55,19.266,19.266,0,0,1,0-30.716,2.752,2.752,0,0,1,3.33,4.349,13.762,13.762,0,0,0,0,22.019A2.752,2.752,0,0,1,18.329,42Z" transform="translate(1.993 -6.774)"/><path class="b" d="M14.3,42.16a2.752,2.752,0,0,1-1.651-.55,19.266,19.266,0,0,1,0-30.716,2.752,2.752,0,1,1,3.33,4.349,13.762,13.762,0,0,0,0,22.019,2.752,2.752,0,0,1-1.651,4.954Z" transform="translate(-5.017 -6.986)"/></g></g></g></svg>