<svg xmlns="http://www.w3.org/2000/svg" width="34" height="34" viewBox="0 0 34 34"><defs><style>.a{opacity:0.5;}.b{fill:none;}.c{fill:#fff;}</style></defs><g class="a" transform="translate(0.184)"><g transform="translate(0 0)"><rect class="b" width="34" height="34" transform="translate(-0.184 0)"/><rect class="b" width="34" height="34" transform="translate(-0.184 0)"/></g><g transform="translate(1.216 5.179)"><path class="c" d="M33.069,8.735A13.852,13.852,0,0,1,29.4,9.7a6.2,6.2,0,0,0,2.824-3.229A17.336,17.336,0,0,1,28.2,7.9a6.854,6.854,0,0,0-6.989-1.433,5.924,5.924,0,0,0-4.1,5.372,4.519,4.519,0,0,0,.212,1.356A18.846,18.846,0,0,1,4.189,7.12a5.15,5.15,0,0,0-.918,2.906,5.646,5.646,0,0,0,2.9,4.844,6.135,6.135,0,0,1-2.9-.71h0a5.9,5.9,0,0,0,5.084,5.748,6.591,6.591,0,0,1-1.695.258l-1.2-.129a6.457,6.457,0,0,0,6,4.069,13.646,13.646,0,0,1-7.909,2.454H2a18.938,18.938,0,0,0,9.744,2.648c11.722,0,18.147-8.912,18.147-16.6v-.84A12.359,12.359,0,0,0,33.069,8.735Z" transform="translate(-2 -6.063)"/></g></g></svg>