<svg xmlns="http://www.w3.org/2000/svg" width="34" height="34" viewBox="0 0 34 34"><defs><style>.a{opacity:0.5;}.b{fill:none;}.c{fill:#fff;}</style></defs><g class="a"><g transform="translate(0 0)"><rect class="b" width="34" height="34" transform="translate(0 0)"/><rect class="b" width="34" height="34" transform="translate(0 0)"/></g><g transform="translate(2.924 2.158)"><path class="c" d="M31.043,4.1H6.193A2.12,2.12,0,0,0,4,6.219V31.143a2.12,2.12,0,0,0,2.193,2.12H31.043a2.12,2.12,0,0,0,2.12-2.12V6.219a2.12,2.12,0,0,0-2.12-2.12ZM12.7,28.95H8.312V15.063H12.7ZM10.505,13.163A2.558,2.558,0,0,1,8.02,10.6a2.485,2.485,0,1,1,4.97,0,2.558,2.558,0,0,1-2.485,2.558ZM28.851,28.95H24.538v-6.8c0-1.608,0-3.655-2.266-3.655s-2.558,1.754-2.558,3.581v6.87H15.4V15.063H19.5v1.9h.073A4.532,4.532,0,0,1,23.661,14.7c4.385,0,5.189,2.851,5.189,6.651Z" transform="translate(-4 -4.098)"/></g></g></svg>