<svg xmlns="http://www.w3.org/2000/svg" xmlns:xlink="http://www.w3.org/1999/xlink" width="70.699" height="94.042" viewBox="0 0 70.699 94.042"><defs><style>.a{fill:url(#a);}.b{fill:url(#b);}.c{fill:url(#c);}.d{fill:url(#d);}.e{fill:url(#e);}.f{fill:url(#f);}.g{fill:url(#g);}.h{fill:url(#h);}.i{fill:url(#i);}.j{fill:#ffa028;}.k{fill:url(#j);}.l{fill:url(#k);}.m{fill:url(#l);}</style><linearGradient id="a" x1="19.286" y1="2.383" x2="19.286" y2="2.66" gradientUnits="objectBoundingBox"><stop offset="0" stop-color="#ffda2d"/><stop offset="1" stop-color="#fdbf00"/></linearGradient><linearGradient id="b" x1="59.95" y1="3.03" x2="59.95" y2="2.83" xlink:href="#a"/><linearGradient id="c" x1="0.794" y1="0.703" x2="0.483" y2="0.062" gradientUnits="objectBoundingBox"><stop offset="0" stop-color="#ff9100" stop-opacity="0"/><stop offset="1" stop-color="#ff9100"/></linearGradient><linearGradient id="d" x1="7.665" y1="3.189" x2="8.676" y2="4.2" xlink:href="#a"/><linearGradient id="e" x1="9.696" y1="4.271" x2="8.536" y2="3.112" xlink:href="#a"/><linearGradient id="f" x1="0.877" y1="0.877" x2="0.538" y2="0.538" xlink:href="#c"/><linearGradient id="g" x1="5.512" y1="-0.056" x2="5.512" y2="0.27" xlink:href="#a"/><linearGradient id="h" x1="6.904" y1="0.202" x2="6.904" y2="-0.058" xlink:href="#a"/><linearGradient id="i" x1="4.838" y1="0.526" x2="5.849" y2="1.537" xlink:href="#a"/><linearGradient id="j" x1="0.644" y1="0.65" x2="0.472" y2="0.164" xlink:href="#c"/><linearGradient id="k" y1="0.5" x2="1" y2="0.5" gradientUnits="objectBoundingBox"><stop offset="0" stop-color="#0b799d"/><stop offset="1" stop-color="#07485e"/></linearGradient><linearGradient id="l" x1="1.145" y1="1.145" x2="0.022" y2="0.024" xlink:href="#k"/></defs><g transform="translate(-63.296)"><g transform="translate(63.296 16.921)"><g transform="translate(25.045 2.132)"><path class="a" d="M281.179,321.685v-1.93a1.716,1.716,0,0,1,.664-1.356,1.717,1.717,0,0,0,0-2.713,1.716,1.716,0,0,1-.664-1.356V312.4a1.222,1.222,0,0,1,1.222-1.222,1.222,1.222,0,0,0,1.222-1.222v-1.387a1.222,1.222,0,0,0-1.222-1.222,1.222,1.222,0,0,1-1.222-1.222v-3.688a1.222,1.222,0,0,1,1.222-1.222,1.222,1.222,0,0,0,1.222-1.222v-6.23H269.8v31.471a5.1,5.1,0,0,0,1.285,3.384l3.672,4.14a2.613,2.613,0,0,0,3.909,0l3.672-4.14a5.1,5.1,0,0,0,1.285-3.384v-1.1a1.222,1.222,0,0,0-1.222-1.222,1.222,1.222,0,0,1-1.222-1.222Z" transform="translate(-256.767 -258.646)"/><path class="b" d="M299.734,293.762v32.659a2.205,2.205,0,0,1-4.41,0V293.762Z" transform="translate(-277.584 -258.647)"/><path class="c" d="M283.623,308.569a1.222,1.222,0,0,0-1.222-1.222,1.222,1.222,0,0,1-1.222-1.222v-3.688a1.222,1.222,0,0,1,1.222-1.222,1.222,1.222,0,0,0,1.222-1.222v-6.23H269.8v3.26l13.615,13.615a1.217,1.217,0,0,0,.208-.682v-1.387Z" transform="translate(-256.767 -258.647)"/><path class="d" d="M219.065,103.328a19.945,19.945,0,1,0,19.945,19.945A19.945,19.945,0,0,0,219.065,103.328Zm0,18.024a5.654,5.654,0,1,1,5.655-5.655A5.654,5.654,0,0,1,219.065,121.352Z" transform="translate(-199.12 -103.328)"/><path class="e" d="M234.485,122.235a16.458,16.458,0,1,0,16.458,16.458A16.458,16.458,0,0,0,234.485,122.235Zm0,14.538a5.654,5.654,0,1,1,5.655-5.655A5.654,5.654,0,0,1,234.485,136.773Z" transform="translate(-214.541 -118.749)"/></g><path class="f" d="M219.065,103.328a19.945,19.945,0,1,0,19.945,19.945A19.945,19.945,0,0,0,219.065,103.328Zm0,18.024a5.654,5.654,0,1,1,5.655-5.655A5.654,5.654,0,0,1,219.065,121.352Z" transform="translate(-174.075 -101.196)"/><g transform="translate(0)"><path class="g" d="M75.669,259.392l1.365-1.365a1.716,1.716,0,0,1,1.429-.489,1.716,1.716,0,0,0,1.918-1.918,1.716,1.716,0,0,1,.489-1.429l1.365-1.365a1.222,1.222,0,0,1,1.729,0,1.222,1.222,0,0,0,1.729,0l.98-.98a1.222,1.222,0,0,0,0-1.729,1.222,1.222,0,0,1,0-1.729l2.608-2.608a1.222,1.222,0,0,1,1.729,0,1.222,1.222,0,0,0,1.729,0l4.405-4.405L87.368,231.6,65.116,253.854a5.1,5.1,0,0,0-1.485,3.3l-.33,5.524a2.613,2.613,0,0,0,2.764,2.764l5.524-.33a5.1,5.1,0,0,0,3.3-1.485l.779-.779a1.222,1.222,0,0,0,0-1.729,1.222,1.222,0,0,1,0-1.729Z" transform="translate(-63.296 -205.816)"/><path class="h" d="M110.01,252.765,86.917,275.859a2.205,2.205,0,0,1-3.118-3.118l23.094-23.094Z" transform="translate(-79.491 -220.535)"/><path class="i" d="M204.41,97.608a19.945,19.945,0,1,0,0,28.206A19.945,19.945,0,0,0,204.41,97.608Zm-12.745,12.745a5.654,5.654,0,1,1,8,0A5.654,5.654,0,0,1,191.665,110.353Z" transform="translate(-150.62 -91.767)"/><path class="j" d="M217.364,115.492a16.458,16.458,0,1,0,0,23.276A16.458,16.458,0,0,0,217.364,115.492Zm-10.28,10.28a5.654,5.654,0,1,1,8,0A5.654,5.654,0,0,1,207.084,125.772Z" transform="translate(-166.039 -107.186)"/></g></g><path class="k" d="M326.7,175.3l13.451,13.451a19.975,19.975,0,0,0,1.458-17.87C339.87,172.543,335.485,175.546,326.7,175.3Z" transform="translate(-214.834 -139.375)"/><path class="l" d="M267.741,0a18.2,18.2,0,0,0-18.17,17.646,20.02,20.02,0,0,1,8.113-.53A10.111,10.111,0,1,1,264.5,27.763h0a10.142,10.142,0,0,1-3.234-1.819,5.649,5.649,0,0,0-6.605,4.843A18.175,18.175,0,1,0,267.741,0Z" transform="translate(-151.927 0)"/><path class="m" d="M300.521,36.743a13.982,13.982,0,0,0-27.91-1.227,20.014,20.014,0,0,1,3.865.163,10.111,10.111,0,1,1,6.817,10.648h0a10.142,10.142,0,0,1-3.234-1.819,5.641,5.641,0,0,0-4.383,1.036,13.982,13.982,0,0,0,24.848-8.8Z" transform="translate(-170.718 -18.562)"/></g></svg>