<svg xmlns="http://www.w3.org/2000/svg" width="18" height="18" viewBox="0 0 18 18"><defs><style>.a{fill:#ffa028;stroke:#171717;}.b{fill:#fff;}.c{stroke:none;}.d{fill:none;}</style></defs><g transform="translate(-34.085 -260.085)"><g class="a" transform="translate(34.085 260.085)"><circle class="c" cx="9" cy="9" r="9"/><circle class="d" cx="9" cy="9" r="8.5"/></g><g transform="translate(38.446 264.825)"><path class="b" d="M10.166,12.668a.377.377,0,0,1-.219-.072L7.526,10.869,5.105,12.6a.377.377,0,0,1-.573-.437L5.562,9.413l-2.4-1.72a.376.376,0,0,1,.219-.683H6.135L7.172,4.24a.377.377,0,0,1,.709,0L8.918,7.011h2.757a.376.376,0,0,1,.219.683l-2.4,1.72,1.029,2.745a.377.377,0,0,1-.354.509Z" transform="translate(-3.002 -3.991)"/></g></g></svg>